
<svg width="50px" height="50px" viewBox="0 0 50 50" version="1.1" xmlns="http://www.w3.org/2000/svg" xmlns:xlink="http://www.w3.org/1999/xlink">
    <g id="Symbols" stroke="none" stroke-width="1" fill="none" fill-rule="evenodd">
        <g id="button/floating" fill="#ED5736" fill-rule="nonzero">
            <circle id="Oval" cx="25" cy="25" r="25"></circle>
            
    <g id="Symbols" stroke="none" stroke-width="1" fill="none" fill-rule="evenodd">
        <g id="button/floating" transform="translate(0.000000, 0.000000)" fill="#FFFFFF" fill-rule="nonzero">
            <path d="M39.875,22.375 L29.25,22.375 C28.9048462,22.375 28.625,22.0951538 28.625,21.75 L28.625,11.125 C28.625,9.39923094 27.2257691,8 25.5,8 C23.7742309,8 22.375,9.39923094 22.375,11.125 L22.375,21.75 C22.375,22.0951538 22.0951538,22.375 21.75,22.375 L11.125,22.375 C9.39923094,22.375 8,23.7742309 8,25.5 C8,27.2257691 9.39923094,28.625 11.125,28.625 L21.75,28.625 C22.0951538,28.625 22.375,28.9048462 22.375,29.25 L22.375,39.875 C22.375,41.6007691 23.7742309,43 25.5,43 C27.2257691,43 28.625,41.6007691 28.625,39.875 L28.625,29.25 C28.625,28.9048462 28.9048462,28.625 29.25,28.625 L39.875,28.625 C41.6007691,28.625 43,27.2257691 43,25.5 C43,23.7742309 41.6007691,22.375 39.875,22.375 Z" id="Shape"></path>
        </g>
    </g>
        </g>
    </g>
</svg>

